<svg id="Layer_1" data-name="Layer 1" xmlns="http://www.w3.org/2000/svg" viewBox="0 0 445.72 547.24"><defs><style>.cls-1{fill:#1d1d1b;}</style></defs><path class="cls-1" d="M108.8,137.8c-19-33.72-24.29-62.75-15.4-83.94,6.29-15,19.46-25.32,39.13-30.64,31.25-8.47,95.27,27.4,146.72,56.22,32.45,18.17,60.48,33.87,69.53,32.3,22.51-3.91,18-31.91,17.78-33.1l2.89-.49c.05.32,5.22,32.06-20.17,36.48-10.11,1.73-37.16-13.43-71.46-32.64C226.84,53.44,163.42,17.9,133.3,26,114.54,31.12,102,40.86,96.1,55c-8.4,20-3,48.94,15.25,81.37Z"/><path class="cls-1" d="M356,152.6c-11.49,0-36.65-17.13-68.48-38.8C234.8,77.88,169.16,33.19,133,43.71a34.15,34.15,0,0,0-21.92,18.66c-7.15,15.8-4,38.36,9.49,67.06l-2.66,1.24c-13.82-29.51-17-52.89-9.5-69.51A37,37,0,0,1,132.15,40.9c37.53-10.91,103.79,34.22,157,70.47,30.17,20.55,56.24,38.3,66.82,38.3h0c4.79,0,17.1-1.33,27.86-13,8.95-9.72,19-29.44,15.92-68.17l2.92-.23c3.13,39.78-7.34,60.23-16.69,70.38-11.53,12.53-24.82,13.94-30,14Z"/><path class="cls-1" d="M355.71,179.31c-20.86,0-67.64-31.31-112.9-61.6-39.42-26.38-80.18-53.66-95.49-53.66a12.18,12.18,0,0,0-10.25,5.51c-6.59,9.15-6.72,27.49-.31,46.71l-2.78.93c-6.69-20.09-6.41-39.46.72-49.36a15.14,15.14,0,0,1,12.62-6.72c16.2,0,55.51,26.3,97.12,54.15,44.89,30.05,91.3,61.11,111.25,61.11H356c17.82-.33,33.88-7.56,45.22-20.38a58.62,58.62,0,0,0,14.5-44.77l2.91-.31a61.56,61.56,0,0,1-15.22,47c-11.89,13.44-28.7,21-47.36,21.37Z"/><path class="cls-1" d="M350.81,81.43c-.18-.12-17.67-12.62-27-10.94a5.62,5.62,0,0,0-3.88,2.4c-8.05,12-26.33,6.42-43.15-.58l1.13-2.71c22.28,9.28,34.13,9.77,39.59,1.65a8.53,8.53,0,0,1,5.79-3.64c10.53-1.9,28.47,10.9,29.23,11.45Z"/><path class="cls-1" d="M318.85,94.48a10.33,10.33,0,0,1-2.42-.29l.66-2.85c2.79.65,4.31-.25,6.42-1.49,3.82-2.25,8.57-5.06,22,1.6l-1.3,2.63c-12-6-15.67-3.79-19.23-1.7A11.47,11.47,0,0,1,318.85,94.48Z"/><path class="cls-1" d="M310.54,58.06c-9.32-5.17-25.51-12-29.26-8.24-7.46,7.44-20.4,6-41.67.64l.71-2.84c23.33,5.84,33.14,5.86,38.89.13,6.4-6.38,28.41,5.34,32.75,7.75Z"/><path class="cls-1" d="M268.65,37.76C256.9,30.31,238.86,22,235.52,26.93c-8,11.78-22.2,12.76-43.39,3l1.23-2.66c19.65,9.08,32.65,8.44,39.74-2,6.13-9,32,6.76,37.12,10Z"/><path class="cls-1" d="M392.68,343.74a1.32,1.32,0,0,1-.34,0,1.46,1.46,0,0,1-1.08-1.77c11.51-47.69,28.37-120.12,28-125.77-.7-1.68-6.69-15.44-22.25-37.47a1.46,1.46,0,1,1,2.39-1.69c16.78,23.76,22.42,37.67,22.65,38.25l.09.29c1.07,6.1-25.07,114.72-28.05,127.08A1.48,1.48,0,0,1,392.68,343.74Z"/><path class="cls-1" d="M409,225.05c-1.14-4.9-5-14.75-25.07-43.56l2.4-1.67c20.15,28.89,24.22,39,25.52,44.56Z"/><path class="cls-1" d="M399.83,256.78c-.88-11.77-5.21-31.64-32.51-68.22l2.34-1.75c27.45,36.77,32.11,56.59,33.09,69.75Z"/><path class="cls-1" d="M388.55,290.92c-.06-.48-6.13-48.47-33.74-93.33l2.49-1.54c28,45.43,34.1,94,34.16,94.52Z"/><path class="cls-1" d="M41.07,324.49c-1.77-9.31-3.55-18.26-5.28-26.94C25.28,244.66,17,202.89,23.93,150.13,26.26,132.46,34.67,110,51.28,99.75c9.88-6.07,21.19-6.94,33.63-2.56l-1,2.76c-11.55-4.06-22-3.29-31.12,2.29-15.73,9.67-23.73,31.28-26,48.28C19.94,202.8,28.2,244.36,38.66,297c1.73,8.69,3.51,17.65,5.28,27Z"/><path class="cls-1" d="M31.58,204.66l-2.91-.39c6.57-49.25,13.23-78,29.57-89.11,8.27-5.59,19.1-6.58,33.14-3L90.65,115c-13.35-3.38-23.13-2.55-30.76,2.62C44.46,128,38,156.25,31.58,204.66Z"/><path class="cls-1" d="M41.08,259.21,38.16,259c.19-3.08.37-6.78.57-11,1.55-32.37,4.44-92.64,28.84-114a30.68,30.68,0,0,1,23.56-7.74l-.24,2.92a27.83,27.83,0,0,0-21.39,7c-23.46,20.59-26.31,80-27.84,112C41.46,252.4,41.28,256.12,41.08,259.21Z"/><path class="cls-1" d="M51.08,293.93l-2.92-.16C48.47,288.23,56.24,158,98.41,142l1,2.74C59,160.1,51.16,292.6,51.08,293.93Z"/><path class="cls-1" d="M155.28,111.62c-1.62-4-6.37-17.59.24-22.63s21.28,1.07,44.69,18.81l-1.76,2.33C169.72,88.36,160.33,89,157.3,91.32c-4,3-2.1,12.23.69,19.21Z"/><path class="cls-1" d="M127.12,356.59a55.05,55.05,0,0,1-25-5.94c-20-10.07-35.33-32.68-41-60.48-2.91-14.24,1.19-31.09,10.23-41.93.6-.73,1.23-1.43,1.87-2.11a49.6,49.6,0,0,1,28.37-14.52c6.71-1.07,16-2.35,22.36-2.35a1.47,1.47,0,1,1,0,2.93c-6.14,0-15.3,1.26-21.9,2.31a46.72,46.72,0,0,0-26.7,13.63c-.6.65-1.18,1.31-1.75,2-8.5,10.19-12.36,26.05-9.6,39.46,5.52,26.94,20.28,48.79,39.48,58.45a52,52,0,0,0,23.64,5.63c19.74,0,37.73-7.35,50.65-20.7,13.15-13.58,20.09-32.17,20.1-53.74,0-11.4-15.78-28.45-15.94-28.62a1.46,1.46,0,1,1,2.14-2c.69.73,16.72,18.06,16.72,30.61,0,22.35-7.23,41.64-20.91,55.78C166.4,348.92,147.66,356.59,127.12,356.59Z"/><path class="cls-1" d="M354.45,239.81a1.44,1.44,0,0,1-.69-.17,49.2,49.2,0,0,0-15.51-5.14c-6.6-1.05-15.75-2.31-21.9-2.31a1.47,1.47,0,1,1,0-2.93c6.34,0,15.66,1.28,22.36,2.35a52.23,52.23,0,0,1,16.43,5.45,1.46,1.46,0,0,1-.69,2.75Z"/><path class="cls-1" d="M313.19,356.59c-42.7,0-73.68-32.54-73.68-77.37,0-5.5,3-12.56,9-21a1.46,1.46,0,1,1,2.39,1.69c-5.51,7.78-8.42,14.44-8.42,19.26,0,43.14,29.75,74.44,70.75,74.44a1.47,1.47,0,0,1,0,2.93Z"/><path class="cls-1" d="M244,282.09a1.43,1.43,0,0,1-1-.41c-.05,0-5.79-5.21-23.28-5.21-17.3,0-21.79,5-21.84,5.09a1.46,1.46,0,0,1-2.27-1.84c.2-.25,5.11-6.18,24.11-6.18s25.06,5.79,25.32,6a1.47,1.47,0,0,1,0,2.07A1.49,1.49,0,0,1,244,282.09Z"/><path d="M217.15,522.81c-97.59,0-177-81-177-180.53,0-6.08.3-12.21.89-18.2a1.49,1.49,0,0,1,1.6-1.32,1.47,1.47,0,0,1,1.31,1.6c-.58,5.91-.87,11.93-.87,17.92,0,97.93,78.08,177.6,174.06,177.6s174.07-79.67,174.07-177.6a1.47,1.47,0,1,1,2.93,0C394.15,441.82,314.75,522.81,217.15,522.81Z"/><path d="M218.5,450.63c-79.91,0-122.31-72.31-122.72-73a1.46,1.46,0,1,1,2.56-1.42c.4.71,41.93,71.53,120.16,71.53,66,0,110.18-52.35,118.8-71.42a1.46,1.46,0,0,1,2.67,1.2C331.14,397,286,450.63,218.5,450.63Z"/><path class="cls-1" d="M92.88,378.32a15.09,15.09,0,0,1-7.6-2.37,1.46,1.46,0,1,1,1.5-2.51c3.57,2.12,6.88,2.52,9.33,1.13a7.47,7.47,0,0,0,3.45-6.7,1.47,1.47,0,1,1,2.93,0,10.36,10.36,0,0,1-4.94,9.25A9.33,9.33,0,0,1,92.88,378.32Z"/><path class="cls-1" d="M342,379.19a9.26,9.26,0,0,1-4.67-1.2,10.33,10.33,0,0,1-4.94-9.25,1.47,1.47,0,0,1,2.93,0,7.48,7.48,0,0,0,3.45,6.71c2.46,1.39,5.77,1,9.33-1.14a1.47,1.47,0,1,1,1.5,2.52A15,15,0,0,1,342,379.19Z"/><path d="M227.05,359.5a1.46,1.46,0,0,1-1.31-.81,1.47,1.47,0,0,1,.65-2c5.09-2.54,7.36-5.13,7.36-13.78,0-10.46-4.77-15.34-15-15.34-10,0-15,5.16-15,15.34,0,8.47,3.1,10.84,7.83,13.47a1.46,1.46,0,1,1-1.42,2.56c-5.11-2.85-9.34-6-9.34-16,0-11.78,6.37-18.26,17.93-18.26,11.89,0,17.93,6.14,17.93,18.26,0,10-3.16,13.49-9,16.4A1.39,1.39,0,0,1,227.05,359.5Z"/><path d="M291.58,339.49c-4.88,0-9.75-2.14-14.15-6.23-10.74-10-17.91-30.3-18.71-53a109,109,0,0,1,2.22-26.6,1.47,1.47,0,0,1,2.26-.9A12.66,12.66,0,1,0,273.12,230a1.47,1.47,0,0,1-1.07-.95,1.49,1.49,0,0,1,.26-1.41c4.6-5.58,10-8.64,15.59-8.85,5.12-.2,10.18,2,14.77,6.23,10.73,10,17.9,30.29,18.71,53h0c1.18,33.28-11.91,60.88-29.19,61.52Zm-28.17-83.22a106.53,106.53,0,0,0-1.77,23.89c.78,21.95,7.59,41.47,17.78,50.95,4.06,3.78,8.4,5.59,12.66,5.45,15.67-.58,27.49-26.82,26.37-58.5h0c-.78-21.95-7.59-41.47-17.78-50.95-4.06-3.77-8.33-5.59-12.66-5.44s-8.28,2.26-12,6.12a15.59,15.59,0,1,1-12.63,28.48Z"/><path d="M182.47,283.5H109.2a1.46,1.46,0,0,1,0-2.92h73.27a1.46,1.46,0,0,1,0,2.92Z"/><path d="M116.48,313.39a1.47,1.47,0,0,1-.61-2.8l63.22-28.77-43.77-26.54a1.47,1.47,0,1,1,1.53-2.51l46.13,28a1.47,1.47,0,0,1-.16,2.59l-65.73,29.92A1.49,1.49,0,0,1,116.48,313.39Z"/></svg>