<svg id="Layer_1" data-name="Layer 1" xmlns="http://www.w3.org/2000/svg" viewBox="0 0 445.72 547.24"><defs><style>.cls-1{fill:#1d1d1b;}</style></defs><path class="cls-1" d="M108.9,137.35c-19-33.77-24.31-62.82-15.41-84,6.3-15,19.48-25.35,39.18-30.68,31.27-8.48,95.38,27.44,146.89,56.29,32.49,18.2,60.55,33.89,69.61,32.34,22.54-3.92,18-31.95,17.8-33.14l2.89-.5c.06.32,5.23,32.1-20.19,36.53-10.07,1.76-37.21-13.44-71.54-32.67-51-28.6-114.59-64.17-144.7-56-18.77,5.08-31.3,14.84-37.24,29-8.41,20.06-3,49,15.27,81.47Z"/><path class="cls-1" d="M356.41,152.16c-11.5,0-36.68-17.14-68.56-38.85-52.79-35.95-118.51-80.7-154.74-70.16a34.19,34.19,0,0,0-22,18.67c-7.16,15.83-4,38.42,9.49,67.15L118,130.21c-13.84-29.54-17-53-9.51-69.59a37,37,0,0,1,23.8-20.28c37.57-10.92,103.91,34.25,157.22,70.55,30.21,20.57,56.3,38.34,66.9,38.34h0c4.8,0,17.12-1.33,27.89-13,9-9.74,19-29.48,15.94-68.25l2.93-.23c3.13,39.83-7.36,60.3-16.71,70.46-11.56,12.55-24.86,13.95-30,14Z"/><path class="cls-1" d="M356.11,178.91c-20.88,0-67.72-31.35-113-61.68-39.47-26.41-80.28-53.72-95.61-53.72A12.18,12.18,0,0,0,137.21,69c-6.6,9.16-6.72,27.52-.31,46.76l-2.78.93c-6.7-20.11-6.42-39.5.72-49.41a15.14,15.14,0,0,1,12.63-6.74c16.22,0,55.58,26.34,97.24,54.23C289.65,144.88,336.11,176,356.09,176h.34c17.84-.32,33.92-7.57,45.27-20.4a58.7,58.7,0,0,0,14.51-44.82l2.92-.31a61.61,61.61,0,0,1-15.24,47.07C392,171,375.16,178.56,356.48,178.9Z"/><path class="cls-1" d="M351.2,80.91c-.18-.12-17.68-12.62-27-11a5.62,5.62,0,0,0-3.88,2.4c-8.06,12-26.37,6.43-43.21-.58l1.13-2.71c22.32,9.28,34.18,9.78,39.65,1.65a8.5,8.5,0,0,1,5.79-3.65c10.57-1.88,28.51,10.92,29.26,11.47Z"/><path class="cls-1" d="M319.21,94a11,11,0,0,1-2.43-.29l.66-2.86c2.8.65,4.33-.25,6.43-1.48,3.83-2.26,8.59-5.07,22,1.6l-1.31,2.62c-12-6-15.69-3.8-19.24-1.7A11.54,11.54,0,0,1,319.21,94Z"/><path class="cls-1" d="M310.89,57.52c-9.34-5.19-25.55-12-29.31-8.25-7.46,7.44-20.41,6-41.71.64l.71-2.85c23.35,5.84,33.18,5.88,38.93.13,6.4-6.39,28.45,5.35,32.8,7.76Z"/><path class="cls-1" d="M269,37.19c-11.77-7.45-29.83-15.75-33.17-10.84-8,11.8-22.24,12.77-43.45,3l1.23-2.66c19.69,9.09,32.7,8.44,39.79-2,6.14-9,32,6.76,37.17,10Z"/><path class="cls-1" d="M393.12,343.53a1.32,1.32,0,0,1-.34,0,1.46,1.46,0,0,1-1.08-1.77C403.22,294,420.1,221.46,419.76,215.8c-.71-1.68-6.71-15.45-22.29-37.51a1.47,1.47,0,0,1,2.4-1.7c16.79,23.79,22.45,37.72,22.68,38.3l.08.29c1.08,6.1-25.1,114.85-28.08,127.23A1.48,1.48,0,0,1,393.12,343.53Z"/><path class="cls-1" d="M409.49,224.7c-1.15-4.91-5-14.77-25.1-43.61l2.41-1.68C407,208.34,411,218.45,412.34,224Z"/><path class="cls-1" d="M400.28,256.46c-.88-11.78-5.22-31.67-32.55-68.29l2.35-1.76c27.48,36.82,32.14,56.66,33.13,69.84Z"/><path class="cls-1" d="M389,290.65c-.06-.48-6.14-48.53-33.78-93.44l2.49-1.54c28,45.48,34.14,94.14,34.2,94.63Z"/><path class="cls-1" d="M41.09,324.26c-1.77-9.32-3.55-18.28-5.28-27C25.29,244.34,17,202.52,23.94,149.7,26.27,132,34.69,109.47,51.32,99.25c9.89-6.07,21.22-6.94,33.66-2.56l-1,2.76c-11.57-4.07-22.06-3.29-31.15,2.3-15.76,9.68-23.77,31.31-26,48.33C19.94,202.42,28.21,244,38.69,296.71c1.73,8.7,3.51,17.67,5.28,27Z"/><path class="cls-1" d="M31.59,204.29l-2.9-.39c6.57-49.31,13.24-78.14,29.6-89.22,8.27-5.6,19.12-6.59,33.17-3l-.72,2.84c-13.38-3.38-23.16-2.55-30.8,2.62C44.49,127.57,38.06,155.82,31.59,204.29Z"/><path class="cls-1" d="M41.1,258.9l-2.92-.19c.2-3.08.37-6.79.57-11C40.31,215.33,43.2,155,67.63,133.55a30.76,30.76,0,0,1,23.59-7.74L91,128.73a27.85,27.85,0,0,0-21.42,7C46.07,156.37,43.22,215.9,41.68,247.88,41.48,252.08,41.3,255.81,41.1,258.9Z"/><path class="cls-1" d="M51.12,293.66l-2.93-.16c.31-5.54,8.09-135.9,50.32-151.91l1,2.75C59.09,159.67,51.2,292.33,51.12,293.66Z"/><path class="cls-1" d="M155.44,111.14c-1.62-4-6.38-17.61.24-22.66s21.31,1.07,44.75,18.83l-1.77,2.34c-28.76-21.8-38.16-21.16-41.2-18.84-4,3-2.1,12.25.7,19.24Z"/><path class="cls-1" d="M127.24,356.4a55.08,55.08,0,0,1-25-5.95c-20-10.08-35.37-32.72-41.08-60.56-2.93-14.25,1.19-31.12,10.23-42,.61-.73,1.23-1.43,1.88-2.12a49.71,49.71,0,0,1,28.4-14.54c6.7-1.07,16-2.34,22.39-2.34a1.47,1.47,0,0,1,0,2.93c-6.17,0-15.33,1.26-21.93,2.31a46.83,46.83,0,0,0-26.73,13.65c-.6.64-1.19,1.31-1.76,2-8.5,10.2-12.37,26.08-9.61,39.5,5.53,27,20.31,48.85,39.53,58.53a52.16,52.16,0,0,0,23.66,5.63c19.78,0,37.79-7.36,50.72-20.72,13.16-13.6,20.12-32.2,20.12-53.8,0-11.43-15.79-28.48-16-28.65a1.47,1.47,0,1,1,2.14-2C185,249,201,266.37,201,278.94c0,22.37-7.24,41.68-20.94,55.83C166.58,348.72,147.82,356.4,127.24,356.4Z"/><path class="cls-1" d="M354.85,239.48a1.44,1.44,0,0,1-.69-.17,49.48,49.48,0,0,0-15.54-5.15c-6.59-1-15.75-2.31-21.92-2.31a1.47,1.47,0,1,1,0-2.93c6.36,0,15.68,1.27,22.39,2.34a52.45,52.45,0,0,1,16.45,5.46,1.47,1.47,0,0,1-.69,2.76Z"/><path class="cls-1" d="M313.53,356.4c-42.74,0-73.76-32.58-73.76-77.46,0-5.52,3-12.58,9-21a1.46,1.46,0,1,1,2.39,1.69c-5.52,7.79-8.43,14.46-8.43,19.29,0,43.18,29.79,74.52,70.83,74.52a1.47,1.47,0,1,1,0,2.94Z"/><path class="cls-1" d="M244.22,281.81a1.51,1.51,0,0,1-1-.41s-5.79-5.22-23.31-5.22c-17.31,0-21.81,5.05-21.85,5.1a1.5,1.5,0,0,1-2.06.19,1.46,1.46,0,0,1-.22-2c.2-.25,5.12-6.18,24.13-6.18s25.1,5.8,25.35,6a1.47,1.47,0,0,1,0,2.08A1.49,1.49,0,0,1,244.22,281.81Z"/><path d="M217.39,522.81c-97.71,0-177.21-81.08-177.21-180.74,0-6.08.3-12.21.89-18.23a1.47,1.47,0,0,1,2.92.29c-.58,5.92-.87,12-.87,17.94,0,98,78.17,177.81,174.27,177.81s174.27-79.77,174.27-177.81a1.47,1.47,0,1,1,2.93,0C394.59,441.73,315.1,522.81,217.39,522.81Z"/><path d="M218.74,450.54c-80,0-122.46-72.39-122.86-73.12A1.46,1.46,0,1,1,98.44,376c.4.71,42,71.61,120.3,71.61,66.08,0,110.3-52.41,118.93-71.51a1.47,1.47,0,0,1,2.68,1.21C331.5,396.87,286.26,450.54,218.74,450.54Z"/><path class="cls-1" d="M93,378.15a15.1,15.1,0,0,1-7.61-2.37,1.47,1.47,0,0,1,1.5-2.52c3.57,2.13,6.89,2.53,9.34,1.14a7.48,7.48,0,0,0,3.45-6.72,1.47,1.47,0,0,1,2.94,0A10.37,10.37,0,0,1,97.65,377,9.4,9.4,0,0,1,93,378.15Z"/><path class="cls-1" d="M342.33,379a9.3,9.3,0,0,1-4.68-1.21,10.36,10.36,0,0,1-4.94-9.26,1.47,1.47,0,0,1,2.94,0,7.48,7.48,0,0,0,3.45,6.71c2.45,1.4,5.77,1,9.34-1.13a1.47,1.47,0,1,1,1.5,2.52A15.1,15.1,0,0,1,342.33,379Z"/><path d="M227.3,359.31a1.48,1.48,0,0,1-1.32-.81,1.47,1.47,0,0,1,.66-2c5.09-2.55,7.37-5.14,7.37-13.8,0-10.48-4.78-15.36-15-15.36-10,0-15,5.17-15,15.36,0,8.48,3.1,10.85,7.84,13.49a1.46,1.46,0,0,1,.57,2,1.48,1.48,0,0,1-2,.57c-5.11-2.85-9.35-6-9.35-16,0-11.79,6.38-18.29,18-18.29,11.91,0,17.95,6.15,17.95,18.29,0,10-3.16,13.51-9,16.42A1.39,1.39,0,0,1,227.3,359.31Z"/><path d="M291.9,339.28c-4.88,0-9.76-2.15-14.17-6.25C267,323,259.81,302.71,259,280a108.66,108.66,0,0,1,2.23-26.62,1.48,1.48,0,0,1,2.26-.91,12.67,12.67,0,1,0,9.93-22.84,1.46,1.46,0,0,1-.81-2.36c4.61-5.59,10-8.66,15.61-8.87,5.1-.22,10.19,2,14.78,6.24,10.75,10,17.93,30.32,18.73,53.05h0c1.19,33.33-11.92,61-29.22,61.6ZM263.69,256a107.35,107.35,0,0,0-1.76,23.92c.78,22,7.6,41.52,17.8,51,4.06,3.77,8.35,5.59,12.68,5.45,15.68-.58,27.52-26.85,26.39-58.57h0c-.78-22-7.6-41.52-17.8-51-4.06-3.78-8.4-5.61-12.67-5.45s-8.29,2.27-12,6.14A15.61,15.61,0,1,1,263.69,256Z"/><path d="M148,342.09h-.61c-17.26-.64-30.34-28.22-29.16-61.48a111.22,111.22,0,0,1,3.1-22.66,1.45,1.45,0,0,1,.83-1,1.49,1.49,0,0,1,1.29.05,12.49,12.49,0,0,0,6,1.6,12.62,12.62,0,0,0,4.31-24.5,1.43,1.43,0,0,1-.9-1,1.46,1.46,0,0,1,.26-1.31c5.55-7,11.91-10.65,18.53-10.38,17.26.64,30.34,28.21,29.16,61.47-.81,22.68-8,43-18.7,52.94C157.72,339.94,152.84,342.09,148,342.09Zm-24.24-81.7a109.1,109.1,0,0,0-2.6,20.32c-1.12,31.64,10.69,57.86,26.34,58.44,4.33.14,8.59-1.67,12.65-5.44,10.17-9.47,17-29,17.76-50.9,1.12-31.65-10.7-57.86-26.34-58.44h0c-5.17-.17-10.27,2.5-14.91,7.8a15.55,15.55,0,0,1-7.18,29.36A15,15,0,0,1,123.73,260.39Z"/></svg>